<svg xmlns="http://www.w3.org/2000/svg" width="30.812" height="35" viewBox="0 0 30.812 35"><defs><style>.a{fill:#fff;}</style></defs><g transform="translate(-968.249 -74.653)"><path class="a" d="M968.249,74.653s12.3,4.644,12.041,11.364h0V97.381s-12.3-4.644-12.04-11.364h0Z" transform="translate(0 0)"/><g transform="translate(981.91 77.287)"><path class="a" d="M1066.954,139.593a16.829,16.829,0,0,1,7.814-2.88v-3.558a16.031,16.031,0,0,0-7.814,6.438Z" transform="translate(-1057.616 -122.158)"/><path class="a" d="M1034.818,104.464a16.713,16.713,0,0,1,9.211-8.256V85.958s-17.517,6.613-17.146,16.183h-.006v16.183s.782-.3,2.009-.85c0-.519.012-1.041.055-1.565A16.815,16.815,0,0,1,1034.818,104.464Z" transform="translate(-1026.878 -85.958)"/><path class="a" d="M1043.616,180.28a16.81,16.81,0,0,1,.612-3.313,15.619,15.619,0,0,0-3.662,8.842c-.025.308-.039.616-.047.923,1-.479,2.153-1.075,3.369-1.776A16.71,16.71,0,0,1,1043.616,180.28Z" transform="translate(-1037.341 -155.762)"/><path class="a" d="M1056.623,162.306a16.025,16.025,0,0,0,.216,4.242c4.787-2.863,10.165-7.287,9.958-12.635h.006v-.456a15.71,15.71,0,0,0-9.106,4.253A16,16,0,0,0,1056.623,162.306Z" transform="translate(-1049.651 -137.73)"/></g></g></svg>