<svg id="Layer_1" enable-background="new 0 0 510 510" height="512" viewBox="0 0 510 510" width="512" xmlns="http://www.w3.org/2000/svg"><g><path d="m465 75h-420c-24.813 0-45 20.187-45 45v270c0 24.814 20.187 45 45 45h420c24.813 0 45-20.186 45-45v-270c0-24.813-20.187-45-45-45zm-420 30h420c8.271 0 15 6.729 15 15v15h-450v-15c0-8.271 6.729-15 15-15zm435 60v60h-450v-60zm-15 240h-420c-8.271 0-15-6.728-15-15v-135h450v135c0 8.272-6.729 15-15 15z"/><path d="m60 285h150v30h-150z"/><path d="m60 345h105v30h-105z"/><path d="m360 375h90v-90h-90zm30-60h30v30h-30z"/></g></svg>